<?xml version="1.0" standalone="no"?>
<!DOCTYPE svg PUBLIC "-//W3C//DTD SVG 20010904//EN"
 "http://www.w3.org/TR/2001/REC-SVG-20010904/DTD/svg10.dtd">
<svg version="1.0" xmlns="http://www.w3.org/2000/svg"
 width="260.000000pt" height="260.000000pt" viewBox="0 0 260.000000 260.000000"
 preserveAspectRatio="xMidYMid meet">
<metadata>
Created by potrace 1.11, written by Peter Selinger 2001-2013
</metadata>
<g transform="translate(0.000000,260.000000) scale(0.100000,-0.100000)"
fill="#000000" stroke="none">
<path d="M570 1910 c-24 -24 -27 -86 -5 -117 21 -30 78 -40 110 -19 46 30 49
122 5 146 -32 17 -88 12 -110 -10z"/>
<path d="M856 1915 c-8 -8 -18 -24 -21 -36 -9 -27 2 -84 18 -97 22 -19 67 -24
97 -12 48 20 62 100 24 141 -21 24 -95 26 -118 4z"/>
<path d="M610 1620 c-153 -27 -145 -22 -144 -107 1 -37 2 -73 3 -79 1 -7 24
-2 64 14 84 35 241 41 298 11 44 -22 46 -25 54 -67 l5 -32 -102 -1 c-178 -1
-250 -18 -315 -74 -50 -42 -66 -87 -65 -173 1 -53 6 -73 29 -111 81 -130 282
-149 407 -40 l48 42 -2 -34 c-1 -19 -2 -40 -1 -46 1 -10 30 -13 110 -13 78 0
110 4 113 13 2 6 3 113 2 237 -1 270 -11 318 -77 383 -61 61 -125 81 -267 83
-63 1 -135 -2 -160 -6z m276 -431 c-7 -53 -34 -98 -77 -127 -28 -19 -43 -23
-83 -19 -88 8 -124 82 -71 146 30 35 42 38 153 40 l83 1 -5 -41z"/>
<path d="M1810 1350 c0 -14 25 -16 199 -15 193 1 200 0 203 -20 2 -11 3 -147
3 -303 -1 -249 1 -282 15 -280 13 3 15 43 15 318 l0 315 -217 0 c-191 1 -218
-1 -218 -15z"/>
<path d="M1890 1200 l0 -60 -30 0 c-29 0 -30 -2 -30 -45 0 -43 1 -45 30 -45
l30 0 0 -100 c0 -168 28 -200 173 -200 l73 0 1 45 1 45 -47 0 c-25 0 -51 4
-58 8 -11 7 -16 58 -14 155 l1 47 65 0 65 0 0 45 0 45 -65 0 -65 0 -1 38 c-1
20 0 47 1 60 1 21 -2 22 -64 22 l-66 0 0 -60z"/>
<path d="M1666 1128 c-21 -30 -20 -54 4 -78 40 -40 101 -17 102 39 2 59 -74
86 -106 39z"/>
<path d="M1177 1128 c6 -7 38 -51 71 -97 l61 -83 -75 -99 -75 -99 70 0 70 0
38 60 c21 33 40 60 43 60 3 -1 24 -27 47 -60 l43 -60 65 0 c36 0 65 1 65 3 0
2 -31 46 -70 97 -38 51 -70 97 -70 100 0 4 29 46 65 93 36 48 65 89 65 92 0 3
-29 5 -64 5 l-64 0 -37 -55 c-21 -30 -41 -55 -44 -55 -3 0 -22 25 -41 55 l-35
55 -69 0 c-53 0 -66 -3 -59 -12z"/>
<path d="M1667 842 c-35 -38 -8 -102 43 -102 26 0 59 21 61 38 0 4 2 15 4 25
9 46 -75 76 -108 39z"/>
</g>
</svg>
